<svg width="1400" height="520" viewBox="0 0 1400 520" fill="none" xmlns="http://www.w3.org/2000/svg" role="img" aria-labelledby="title desc">
  <title id="title">makerSPACE internship learning network</title>
  <desc id="desc">Intern teams connect classroom support, workshops, and public showcase events.</desc>
  <rect width="1400" height="520" fill="#FFF8EA"/>

  <rect x="70" y="150" width="320" height="220" rx="22" fill="#D9F1E8" stroke="#1A2427" stroke-width="4"/>
  <text x="230" y="205" text-anchor="middle" font-family="Arial, sans-serif" font-size="30" font-weight="700" fill="#1F5F62">Intern Teams</text>
  <text x="230" y="247" text-anchor="middle" font-family="Arial, sans-serif" font-size="21" fill="#1A2427">Astro Pi · Pico2</text>
  <text x="230" y="279" text-anchor="middle" font-family="Arial, sans-serif" font-size="21" fill="#1A2427">Scratch · LED · Arcade</text>

  <rect x="540" y="70" width="320" height="150" rx="22" fill="#FFF2D7" stroke="#1A2427" stroke-width="4"/>
  <text x="700" y="128" text-anchor="middle" font-family="Arial, sans-serif" font-size="29" font-weight="700" fill="#1F5F62">Classroom Support</text>
  <text x="700" y="168" text-anchor="middle" font-family="Arial, sans-serif" font-size="21" fill="#1A2427">Grade 4 + Grade 6</text>

  <rect x="540" y="300" width="320" height="150" rx="22" fill="#FFF2D7" stroke="#1A2427" stroke-width="4"/>
  <text x="700" y="358" text-anchor="middle" font-family="Arial, sans-serif" font-size="29" font-weight="700" fill="#1F5F62">Workshops</text>
  <text x="700" y="398" text-anchor="middle" font-family="Arial, sans-serif" font-size="21" fill="#1A2427">Robotics for All</text>

  <rect x="1010" y="150" width="320" height="220" rx="22" fill="#FFE4B6" stroke="#1A2427" stroke-width="4"/>
  <text x="1170" y="205" text-anchor="middle" font-family="Arial, sans-serif" font-size="30" font-weight="700" fill="#1F5F62">Publication</text>
  <text x="1170" y="247" text-anchor="middle" font-family="Arial, sans-serif" font-size="21" fill="#1A2427">ScienceFest</text>
  <text x="1170" y="279" text-anchor="middle" font-family="Arial, sans-serif" font-size="21" fill="#1A2427">Dunrae Fair</text>
  <text x="1170" y="311" text-anchor="middle" font-family="Arial, sans-serif" font-size="21" fill="#1A2427">Public Demos</text>

  <path d="M392 210 H520" stroke="#1A2427" stroke-width="5" stroke-linecap="round"/>
  <path d="M392 315 H520" stroke="#1A2427" stroke-width="5" stroke-linecap="round"/>
  <path d="M860 145 H990" stroke="#1A2427" stroke-width="5" stroke-linecap="round"/>
  <path d="M860 375 H990" stroke="#1A2427" stroke-width="5" stroke-linecap="round"/>

  <path d="M520 210 L500 198 L500 222 Z" fill="#1A2427"/>
  <path d="M520 315 L500 303 L500 327 Z" fill="#1A2427"/>
  <path d="M990 145 L970 133 L970 157 Z" fill="#1A2427"/>
  <path d="M990 375 L970 363 L970 387 Z" fill="#1A2427"/>
</svg>
